<svg width="12" height="12" viewBox="0 0 12 12" fill="none" xmlns="http://www.w3.org/2000/svg">
  <path d="M10.5 0.75H9C9 0.551088 8.92098 0.360333 8.78033 0.219681C8.63968 0.0790285 8.44891 0 8.25 0C8.05109 0 7.86032 0.0790285 7.71967 0.219681C7.57902 0.360333 7.5 0.551088 7.5 0.75H4.5C4.5 0.551088 4.42098 0.360333 4.28033 0.219681C4.13968 0.0790285 3.94891 0 3.75 0C3.55109 0 3.36032 0.0790285 3.21967 0.219681C3.07902 0.360333 3 0.551088 3 0.75H1.5C1.10218 0.75 0.720643 0.908034 0.439339 1.18934C0.158034 1.47064 0 1.85218 0 2.25V10.5C0 10.8978 0.158034 11.2794 0.439339 11.5607C0.720643 11.842 1.10218 12 1.5 12H10.5C10.8978 12 11.2794 11.842 11.5607 11.5607C11.842 11.2794 12 10.8978 12 10.5V2.25C12 1.85218 11.842 1.47064 11.5607 1.18934C11.2794 0.908034 10.8978 0.75 10.5 0.75ZM1.5 2.25H3C3 2.44891 3.07902 2.63967 3.21967 2.78032C3.36032 2.92097 3.55109 3 3.75 3C3.94891 3 4.13968 2.92097 4.28033 2.78032C4.42098 2.63967 4.5 2.44891 4.5 2.25H7.5C7.5 2.44891 7.57902 2.63967 7.71967 2.78032C7.86032 2.92097 8.05109 3 8.25 3C8.44891 3 8.63968 2.92097 8.78033 2.78032C8.92098 2.63967 9 2.44891 9 2.25H10.5V3.75H1.5V2.25ZM1.5 10.5V5.25H10.5V10.5H1.5Z" fill="#8B8B8B"/>
</svg>

