<svg width="12" height="12" viewBox="0 0 12 12" 
  xmlns="http://www.w3.org/2000/svg">
  <path fill-rule="evenodd" clip-rule="evenodd" d="M8.577 4.563L5.8362 8.163C5.7234 8.3112 5.5488 8.3988 5.3628 8.4H5.3586C5.1744 8.4 5.0004 8.3148 4.8864 8.1696L3.4272 6.3054C3.2232 6.045 3.2688 5.6676 3.5298 5.4636C3.7902 5.259 4.1682 5.3046 4.3722 5.5662L5.352 6.8178L7.6224 3.8364C7.8228 3.573 8.199 3.5214 8.4636 3.7224C8.727 3.9234 8.778 4.2996 8.577 4.563ZM6 0C2.6862 0 0 2.6862 0 6C0 9.3132 2.6862 12 6 12C9.3138 12 12 9.3132 12 6C12 2.6862 9.3138 0 6 0Z" />
</svg>
