<svg width="12" height="12" viewBox="0 0 8 4" 
  xmlns="http://www.w3.org/2000/svg">
  <path d="M2.35503e-06 0.667059C8.55775e-06 0.579208 0.0206961 0.492235 0.0608816 0.411246C0.101067 0.330257 0.159924 0.256879 0.234013 0.195401C0.384863 0.0701543 0.587686 -3.24003e-07 0.798919 -3.14769e-07C1.01015 -3.05536e-07 1.21297 0.0701543 1.36382 0.195401L4.00025 2.39236L6.63588 0.195401C6.78673 0.0701546 6.98956 -4.41679e-08 7.20079 -3.49347e-08C7.41202 -2.57013e-08 7.61484 0.0701546 7.76569 0.195401C7.83987 0.256834 7.89883 0.330188 7.93907 0.411183C7.97931 0.492179 8 0.579184 8 0.66706C8 0.754935 7.97931 0.84192 7.93907 0.922915C7.89883 1.00391 7.83987 1.07728 7.76569 1.13872L4.56353 3.8046C4.41268 3.92985 4.20985 4 3.99862 4C3.78739 4 3.58462 3.92985 3.43377 3.8046L0.231599 1.13872C0.157985 1.07705 0.0996103 1.00358 0.0598473 0.922602C0.0200839 0.841626 -0.000262293 0.75476 2.35503e-06 0.667059Z" />
</svg>
