<svg width="12" height="12" viewBox="0 0 12 12" fill="none" xmlns="http://www.w3.org/2000/svg">
  <path d="M0.75 12C0.551088 12 0.360333 11.921 0.219681 11.7803C0.0790285 11.6397 0 11.4489 0 11.25V9.75004C0 9.55113 0.0790285 9.36038 0.219681 9.21973C0.360333 9.07908 0.551088 9.00006 0.75 9.00006C0.948912 9.00006 1.13967 9.07908 1.28032 9.21973C1.42097 9.36038 1.5 9.55113 1.5 9.75004V10.5H10.5V9.75004C10.5 9.55113 10.579 9.36038 10.7197 9.21973C10.8603 9.07908 11.0511 9.00006 11.25 9.00006C11.4489 9.00006 11.6397 9.07908 11.7803 9.21973C11.921 9.36038 12 9.55113 12 9.75004V11.25C12 11.4489 11.921 11.6397 11.7803 11.7803C11.6397 11.921 11.4489 12 11.25 12H0.75ZM5.25 8.25007V2.56141L4.28023 3.53039C4.13878 3.66701 3.94935 3.74262 3.7527 3.74091C3.55605 3.7392 3.36794 3.66033 3.22888 3.52128C3.08983 3.38223 3.01096 3.19411 3.00925 2.99747C3.00754 2.80083 3.08315 2.6114 3.21977 2.46995L5.46977 0.219997C5.53943 0.150266 5.62212 0.0949161 5.71317 0.0571736C5.80421 0.0194311 5.9018 0 6.00037 0C6.09893 0 6.19652 0.0194311 6.28757 0.0571736C6.37862 0.0949161 6.46135 0.150266 6.53101 0.219997L8.78101 2.46995C8.91762 2.6114 8.99319 2.80083 8.99149 2.99747C8.98978 3.19411 8.91091 3.38223 8.77185 3.52128C8.63279 3.66033 8.44468 3.7392 8.24803 3.74091C8.05138 3.74262 7.86196 3.66701 7.7205 3.53039L6.75 2.56068V8.25007C6.75 8.44898 6.67097 8.63973 6.53032 8.78038C6.38967 8.92103 6.19891 9.00006 6 9.00006C5.80109 9.00006 5.61033 8.92103 5.46968 8.78038C5.32903 8.63973 5.25 8.44898 5.25 8.25007Z" fill="black"/>
</svg>


