<svg width="16" height="8" viewBox="0 0 16 8" fill="none" xmlns="http://www.w3.org/2000/svg">
  <path d="M0.990675 3.00163L12.5885 3.00163L11.2937 1.70758C11.2007 1.61526 11.1269 1.50522 11.0765 1.38382C11.0261 1.26242 11.0002 1.13213 11.0002 1.0005C11.0002 0.868873 11.0261 0.738523 11.0765 0.617121C11.1269 0.495718 11.2007 0.385677 11.2937 0.293362C11.4822 0.10539 11.7366 0 12.0016 0C12.2666 0 12.521 0.10539 12.7096 0.293362L15.7116 3.29462C15.7958 3.38037 15.8637 3.48099 15.9118 3.59156C15.9256 3.62443 15.9373 3.65821 15.9468 3.69261C15.9738 3.77219 15.99 3.85513 15.9948 3.93911C15.9989 3.97262 16.0006 4.00636 15.9998 4.04011C15.9968 4.14751 15.9762 4.25364 15.9388 4.35425C15.9369 4.36346 15.9346 4.3726 15.9318 4.38156C15.8831 4.49086 15.8153 4.59045 15.7317 4.67554C15.7236 4.68463 15.7206 4.69672 15.7116 4.70581L12.7096 7.70707C12.5209 7.8948 12.2666 8 12.0016 8C11.7367 8 11.4824 7.8948 11.2937 7.70707C11.2007 7.61475 11.1269 7.50465 11.0765 7.38325C11.0261 7.26185 11.0002 7.13156 11.0002 6.99993C11.0002 6.8683 11.0261 6.73801 11.0765 6.61661C11.1269 6.49521 11.2007 6.38511 11.2937 6.29279L12.5885 4.99874L0.990675 4.99874C0.727933 4.99874 0.475945 4.89343 0.290159 4.70588C0.104372 4.51832 0 4.26391 0 3.99867C0 3.73344 0.104372 3.47909 0.290159 3.29154C0.475945 3.10398 0.727933 2.99861 0.990675 2.99861V3.00163Z" fill="black"/>
</svg>


