<svg width="12" height="12" viewBox="0 0 16 17" 
  xmlns="http://www.w3.org/2000/svg">
  <path d="M0.0159218 8.91222C0.0139435 7.33884 0.478697 5.80023 1.35138 4.49105C2.22406 3.18187 3.46546 2.16096 4.9185 1.55748C6.37155 0.954007 7.97095 0.795081 9.51434 1.10082C11.0577 1.40656 12.4757 2.16323 13.589 3.27507C14.7022 4.38692 15.4607 5.804 15.7684 7.347C16.076 8.89001 15.9191 10.4896 15.3175 11.9434C14.7158 13.3972 13.6965 14.6399 12.3884 15.5142C11.0803 16.3885 9.5423 16.8552 7.96892 16.8552C7.89492 16.8552 7.82092 16.8552 7.74692 16.8552C5.67166 16.8171 3.69534 15.9613 2.24764 14.4739C0.799943 12.9865 -0.0020855 10.9878 0.0159218 8.91222ZM2.00392 8.91222C2.00254 10.0923 2.3512 11.2462 3.0058 12.2281C3.6604 13.21 4.59152 13.9756 5.68136 14.4282C6.7712 14.8807 7.97078 14.9998 9.12834 14.7705C10.2859 14.5411 11.3494 13.9735 12.1843 13.1396C13.0193 12.3057 13.5881 11.2428 13.8188 10.0855C14.0495 8.92824 13.9318 7.72851 13.4805 6.63814C13.0293 5.54777 12.2647 4.61576 11.2836 3.96001C10.3025 3.30426 9.14898 2.95424 7.96892 2.95424C6.3882 2.95451 4.87219 3.58206 3.75379 4.69915C2.6354 5.81623 2.00604 7.3315 2.00392 8.91222ZM9.45392 11.5672C9.26793 11.3567 9.03931 11.1881 8.7832 11.0726C8.52709 10.9571 8.24936 10.8973 7.96842 10.8973C7.68748 10.8973 7.40974 10.9571 7.15364 11.0726C6.89753 11.1881 6.66891 11.3567 6.48292 11.5672C6.39144 11.6697 6.27923 11.7516 6.15373 11.8075C6.02822 11.8633 5.89229 11.8918 5.75492 11.8912C5.56204 11.89 5.37363 11.833 5.21239 11.7272C5.05116 11.6213 4.92398 11.471 4.84619 11.2945C4.7684 11.118 4.74332 10.9228 4.77397 10.7324C4.80462 10.5419 4.88968 10.3644 5.01892 10.2212C5.39203 9.80927 5.84728 9.47999 6.35537 9.25466C6.86346 9.02932 7.41311 8.91292 7.96892 8.91292C8.52473 8.91292 9.07438 9.02932 9.58247 9.25466C10.0906 9.47999 10.5458 9.80927 10.9189 10.2212C11.0482 10.3645 11.1333 10.5421 11.1639 10.7326C11.1945 10.9232 11.1694 11.1185 11.0914 11.295C11.0135 11.4715 10.8862 11.6218 10.7248 11.7276C10.5634 11.8334 10.3749 11.8902 10.1819 11.8912C10.0446 11.8918 9.90865 11.8632 9.78315 11.8074C9.65766 11.7515 9.54544 11.6696 9.45392 11.5672ZM9.95392 7.91823C9.95392 7.72164 10.0122 7.52945 10.1214 7.36599C10.2307 7.20252 10.3859 7.07513 10.5675 6.9999C10.7492 6.92466 10.949 6.90496 11.1418 6.94332C11.3347 6.98167 11.5118 7.07637 11.6508 7.21538C11.7898 7.3544 11.8845 7.53151 11.9228 7.72432C11.9612 7.91714 11.9415 8.117 11.8663 8.29863C11.791 8.48026 11.6636 8.63549 11.5002 8.74471C11.3367 8.85393 11.1445 8.91222 10.9479 8.91222C10.685 8.91143 10.4331 8.80649 10.2473 8.62038C10.0616 8.43427 9.95718 8.18217 9.95692 7.91924L9.95392 7.91823ZM3.98892 7.91823C3.98892 7.72164 4.04722 7.52945 4.15644 7.36599C4.26566 7.20252 4.4209 7.07513 4.60253 6.9999C4.78416 6.92466 4.98402 6.90496 5.17684 6.94332C5.36966 6.98167 5.54677 7.07637 5.68578 7.21538C5.8248 7.3544 5.91947 7.53151 5.95782 7.72432C5.99618 7.91714 5.97649 8.117 5.90126 8.29863C5.82602 8.48026 5.69862 8.63549 5.53516 8.74471C5.37169 8.85393 5.17952 8.91222 4.98292 8.91222C4.71999 8.91143 4.46808 8.80649 4.28235 8.62038C4.09662 8.43427 3.99218 8.18217 3.99192 7.91924L3.98892 7.91823Z" />
</svg>
