<svg width="12" height="12" viewBox="0 0 12 12" fill="none" xmlns="http://www.w3.org/2000/svg">
  <path d="M10.4991 5.37825C10.5034 4.30186 10.1308 3.25792 9.44591 2.42759C8.76107 1.59726 7.80722 1.03292 6.74985 0.8325V0.75C6.74985 0.551088 6.67083 0.360322 6.53021 0.219669C6.38959 0.0790171 6.19887 0 6 0C5.80113 0 5.61041 0.0790171 5.46979 0.219669C5.32917 0.360322 5.25015 0.551088 5.25015 0.75V0.817497C4.20296 0.995449 3.25236 1.53789 2.56631 2.34898C1.88025 3.16007 1.50289 4.18759 1.50092 5.25V5.37825C1.00031 5.55496 0.578306 5.90305 0.309559 6.36097C0.040812 6.81888 -0.0573689 7.35711 0.0323941 7.88045C0.122157 8.40378 0.394071 8.8785 0.800044 9.22064C1.20602 9.56278 1.71989 9.75029 2.25077 9.75H3.75046C3.75046 10.3467 3.98747 10.919 4.40934 11.341C4.83122 11.7629 5.40339 12 6 12C6.59662 12 7.16879 11.7629 7.59066 11.341C8.01253 10.919 8.24954 10.3467 8.24954 9.75H9.74923C10.2801 9.75029 10.794 9.56278 11.2 9.22064C11.6059 8.8785 11.8778 8.40378 11.9676 7.88045C12.0574 7.35711 11.9592 6.81888 11.6904 6.36097C11.4217 5.90305 10.9997 5.55496 10.4991 5.37825ZM6 10.5C5.80113 10.5 5.61041 10.421 5.46979 10.2803C5.32917 10.1397 5.25015 9.94891 5.25015 9.75H6.74985C6.74985 9.94891 6.67083 10.1397 6.53021 10.2803C6.38959 10.421 6.19887 10.5 6 10.5ZM9.74923 8.25H2.25077C2.05189 8.25 1.86118 8.17098 1.72056 8.03033C1.57993 7.88968 1.50092 7.69891 1.50092 7.5C1.50092 7.30109 1.57993 7.11032 1.72056 6.96967C1.86118 6.82902 2.05189 6.75 2.25077 6.75H3.00061V5.25C3.00061 4.45435 3.31662 3.69129 3.87911 3.12868C4.44161 2.56607 5.20451 2.25 6 2.25C6.09748 2.25 6.19571 2.2545 6.29469 2.26425C7.03894 2.32891 7.73124 2.67253 8.23283 3.22625C8.73443 3.77997 9.00824 4.50286 8.99939 5.25V6.75H9.74923C9.9481 6.75 10.1388 6.82902 10.2794 6.96967C10.4201 7.11032 10.4991 7.30109 10.4991 7.5C10.4991 7.69891 10.4201 7.88968 10.2794 8.03033C10.1388 8.17098 9.9481 8.25 9.74923 8.25Z" fill="black"/>
</svg>


