<svg width="10" height="12" viewBox="0 0 10 12" fill="none" xmlns="http://www.w3.org/2000/svg">
  <path d="M8.99284 11.9325C8.8868 11.8832 8.7938 11.8075 8.72186 11.712C8.64992 11.6164 8.60121 11.504 8.57994 11.3843C8.55868 11.2646 8.56549 11.1412 8.5998 11.0249C8.6341 10.9086 8.69487 10.8028 8.77685 10.7166C8.85882 10.6305 8.95955 10.5666 9.07031 10.5305C9.18107 10.4944 9.29853 10.4871 9.41256 10.5093C9.52659 10.5316 9.63374 10.5827 9.72476 10.6581C9.81578 10.7336 9.88793 10.8312 9.93498 10.9425C9.97846 11.0385 10.0007 11.1437 9.99998 11.25C9.99998 11.4489 9.92473 11.6397 9.79078 11.7803C9.65682 11.921 9.47514 12 9.2857 12C9.18451 12.0006 9.08446 11.9776 8.99284 11.9325ZM1.42857 12C1.05004 11.9988 0.687329 11.8404 0.419665 11.5593C0.152001 11.2783 0.00113052 10.8974 0 10.5V2.25C0.00113052 1.85254 0.152001 1.47169 0.419665 1.19064C0.687329 0.909595 1.05004 0.751186 1.42857 0.749999H2.33571C2.46097 0.522196 2.64108 0.332986 2.85797 0.201347C3.07486 0.0697083 3.32091 0.000269806 3.57142 0H6.42856C6.67908 0.000269806 6.92513 0.0697083 7.14202 0.201347C7.35891 0.332986 7.53902 0.522196 7.66428 0.749999H8.57141C8.94995 0.751186 9.31266 0.909595 9.58032 1.19064C9.84798 1.47169 9.99885 1.85254 9.99998 2.25V4.49999C9.99998 4.69891 9.92473 4.88966 9.79078 5.03031C9.65682 5.17097 9.47514 5.24999 9.2857 5.24999C9.09626 5.24999 8.91458 5.17097 8.78062 5.03031C8.64667 4.88966 8.57141 4.69891 8.57141 4.49999V2.25H7.85713C7.856 2.64746 7.70513 3.02831 7.43747 3.30935C7.1698 3.5904 6.80709 3.74881 6.42856 3.75H3.57142C3.19289 3.74881 2.83018 3.5904 2.56252 3.30935C2.29485 3.02831 2.14398 2.64746 2.14285 2.25H1.42857V10.5H6.42856C6.618 10.5 6.79968 10.579 6.93364 10.7197C7.06759 10.8603 7.14285 11.0511 7.14285 11.25C7.14285 11.4489 7.06759 11.6397 6.93364 11.7803C6.79968 11.921 6.618 12 6.42856 12H1.42857ZM3.57142 2.25H6.42856V1.5H3.57142V2.25ZM8.57141 8.99999V7.49999C8.57141 7.30108 8.64667 7.11032 8.78062 6.96967C8.91458 6.82902 9.09626 6.74999 9.2857 6.74999C9.47514 6.74999 9.65682 6.82902 9.79078 6.96967C9.92473 7.11032 9.99998 7.30108 9.99998 7.49999V8.99999C9.99998 9.1989 9.92473 9.38966 9.79078 9.53031C9.65682 9.67096 9.47514 9.74999 9.2857 9.74999C9.09626 9.74999 8.91458 9.67096 8.78062 9.53031C8.64667 9.38966 8.57141 9.1989 8.57141 8.99999ZM3.57142 8.99999C3.38198 8.99999 3.2003 8.92096 3.06635 8.78031C2.93239 8.63966 2.85714 8.4489 2.85714 8.24999C2.85714 8.05108 2.93239 7.86032 3.06635 7.71967C3.2003 7.57902 3.38198 7.49999 3.57142 7.49999H4.99999C5.18943 7.49999 5.37111 7.57902 5.50507 7.71967C5.63902 7.86032 5.71428 8.05108 5.71428 8.24999C5.71428 8.4489 5.63902 8.63966 5.50507 8.78031C5.37111 8.92096 5.18943 8.99999 4.99999 8.99999H3.57142ZM3.57142 6.74999C3.38198 6.74999 3.2003 6.67096 3.06635 6.53031C2.93239 6.38966 2.85714 6.1989 2.85714 5.99999C2.85714 5.80108 2.93239 5.61033 3.06635 5.46967C3.2003 5.32902 3.38198 5.24999 3.57142 5.24999H6.42856C6.618 5.24999 6.79968 5.32902 6.93364 5.46967C7.06759 5.61033 7.14285 5.80108 7.14285 5.99999C7.14285 6.1989 7.06759 6.38966 6.93364 6.53031C6.79968 6.67096 6.618 6.74999 6.42856 6.74999H3.57142Z" fill="black"/>
</svg>


