<svg width="16" height="8" viewBox="0 0 16 8" fill="none" xmlns="http://www.w3.org/2000/svg">
  <path d="M15.0093 3.00163L3.41148 3.00163L4.70635 1.70758C4.7993 1.61526 4.87312 1.50522 4.92351 1.38382C4.97389 1.26242 4.99984 1.13213 4.99984 1.0005C4.99984 0.868873 4.97389 0.738523 4.92351 0.617121C4.87312 0.495718 4.7993 0.385677 4.70635 0.293362C4.51776 0.10539 4.26341 0 3.99838 0C3.73335 0 3.47899 0.10539 3.2904 0.293362L0.288367 3.29462C0.204151 3.38037 0.136309 3.48099 0.0882349 3.59156C0.0744102 3.62443 0.0627075 3.65821 0.0532076 3.69261C0.0261962 3.77219 0.010033 3.85513 0.00517094 3.93911C0.00108204 3.97262 -0.000579774 4.00636 0.000177938 4.04011C0.00323492 4.14751 0.0238495 4.25364 0.0612086 4.35425C0.063064 4.36346 0.0654059 4.3726 0.0682171 4.38156C0.11694 4.49086 0.184727 4.59045 0.268349 4.67554C0.276355 4.68463 0.279361 4.69672 0.288367 4.70581L3.2904 7.70707C3.47912 7.8948 3.73343 8 3.99838 8C4.26333 8 4.51763 7.8948 4.70635 7.70707C4.7993 7.61475 4.87312 7.50465 4.92351 7.38325C4.97389 7.26185 4.99984 7.13156 4.99984 6.99993C4.99984 6.8683 4.97389 6.73801 4.92351 6.61661C4.87312 6.49521 4.7993 6.38511 4.70635 6.29279L3.41148 4.99874L15.0093 4.99874C15.2721 4.99874 15.5241 4.89343 15.7098 4.70588C15.8956 4.51832 16 4.26391 16 3.99867C16 3.73344 15.8956 3.47909 15.7098 3.29154C15.5241 3.10398 15.2721 2.99861 15.0093 2.99861V3.00163Z" fill="black"/>
</svg>


